<svg width="83" height="83" viewBox="0 0 83 83" fill="none" xmlns="http://www.w3.org/2000/svg">
<g filter="url(#filter0_d)">
<circle cx="41.5" cy="37.5" r="37.5" fill="#FCF9F6"/>
<path d="M36.711 9.43212C32.8705 10.1668 29.03 11.8737 26.0182 14.1641C20.5001 18.3774 17.0639 23.7576 15.366 30.8015C14.8606 32.919 14.8 33.416 14.8 37.4133C14.8 41.2161 14.8606 41.9723 15.2649 43.7657C17.2458 52.3221 22.299 59.1932 29.3534 62.888C33.6386 65.1567 36.5492 65.8698 41.2791 65.8914C44.0887 65.8914 44.8164 65.8265 46.8377 65.3296C49.4856 64.6598 51.6888 63.8171 53.892 62.5855C58.4602 60.0358 63.19 54.7421 65.3124 49.8157C66.8082 46.3586 67.8593 41.7563 67.8593 38.7529V37.5213H65.1911H62.5028L62.4422 38.5584C62.139 44.522 59.9762 49.6212 55.9942 53.7482C53.6091 56.233 50.9207 57.9832 47.9292 58.9771C44.9983 59.971 44.21 60.1007 41.178 60.0791C38.6716 60.0791 37.9439 59.9926 36.1248 59.4957C27.3523 57.0541 21.0054 49.1675 20.1767 39.6604C19.065 27.0203 27.7161 15.9358 39.561 14.8771L41.2589 14.7259L41.2791 11.8737V8.99998L40.0663 9.02159C39.3993 9.02159 37.8833 9.21605 36.711 9.43212Z" fill="#303C6C"/>
<path d="M43.5632 31.1904L43.5025 44.5436L42.9972 45.4943C42.2493 46.8987 41.4206 47.3525 39.5408 47.3309C36.9131 47.3093 35.9631 46.3802 35.7407 43.6577L35.6195 41.9507L32.7694 41.9075C28.747 41.8427 28.9694 41.713 29.1109 44.0898C29.3332 48.6057 31.6375 51.8035 35.7205 53.2296C37.2365 53.7698 37.7418 53.8346 39.9653 53.8346C43.7855 53.813 46.11 52.9271 48.192 50.6584C49.142 49.6212 50.1122 47.5253 50.4558 45.7752C50.5973 44.9973 50.6782 40.3086 50.6782 31.2552V17.8588H47.1409H43.6238L43.5632 31.1904Z" fill="#303C6C"/>
</g>
<defs>
<filter id="filter0_d" x="0" y="0" width="83" height="83" filterUnits="userSpaceOnUse" color-interpolation-filters="sRGB">
<feFlood flood-opacity="0" result="BackgroundImageFix"/>
<feColorMatrix in="SourceAlpha" type="matrix" values="0 0 0 0 0 0 0 0 0 0 0 0 0 0 0 0 0 0 127 0"/>
<feOffset dy="4"/>
<feGaussianBlur stdDeviation="2"/>
<feColorMatrix type="matrix" values="0 0 0 0 0 0 0 0 0 0 0 0 0 0 0 0 0 0 0.25 0"/>
<feBlend mode="normal" in2="BackgroundImageFix" result="effect1_dropShadow"/>
<feBlend mode="normal" in="SourceGraphic" in2="effect1_dropShadow" result="shape"/>
</filter>
</defs>
</svg>
